<?xml version="1.0" encoding="UTF-8"?>
<!DOCTYPE svg PUBLIC "-//W3C//DTD SVG 1.1//EN" "http://www.w3.org/Graphics/SVG/1.1/DTD/svg11.dtd">
<!-- Creator: CorelDRAW 2018 (64 Bit Versão de avaliação) -->
<svg xmlns="http://www.w3.org/2000/svg" xml:space="preserve" width="33.8666mm" height="33.8666mm" version="1.1" style="shape-rendering:geometricPrecision; text-rendering:geometricPrecision; image-rendering:optimizeQuality; fill-rule:evenodd; clip-rule:evenodd"
viewBox="0 0 3386.66 3386.66"
 xmlns:xlink="http://www.w3.org/1999/xlink">
 <defs>
  <style type="text/css">
   <![CDATA[
    .fil0 {fill:black}
   ]]>
  </style>
 </defs>
 <g id="Camada_x0020_1">
  <metadata id="CorelCorpID_0Corel-Layer"/>
  <g id="_2249050649952">
   <g id="_1673374636000">
    <path class="fil0" d="M2070.32 3236.97c-99.1,0 -103.69,-160.12 0,-160.12 105.2,0 98.58,160.12 0,160.12zm-648.85 -3183.36l74.76 0c139.45,9.35 275.38,70.84 389.97,184.12 193.75,191.55 221.1,546.69 41.28,768.32 -48.74,60.08 -99.35,107.21 -166.61,147.25l-109.22 50.9c-31.08,14.8 -18.44,21.84 -30.81,52.46 -20.83,51.55 -53.24,68.41 -96.55,95.61 -24.19,15.18 -17.62,16.54 -17.62,46.42 62.6,0 343.26,51.51 397.12,64.05 7.19,-86.42 140.71,-160.57 262.61,-96.07 16.06,-23.99 37.92,-41.24 59.25,-62.45l54.3 -60.99c36.9,-38.33 86.59,-79.66 117.99,-119.01 21.17,-26.54 34.04,-39.51 58.32,-63.37 87.25,-85.74 19.2,-96.81 2.18,-153.37 -8.57,-28.48 13.55,-59.63 47.43,-59.63 86.8,0 111.65,156.09 65.59,232.12 -20.42,33.7 -329.83,349.66 -341.01,357.16 18.92,81.2 39.53,128.98 -33.44,203.55 -96.48,98.6 -266.77,59.18 -299.63,-81.85 -33.17,0 -376.27,-57.13 -390.71,-64.06l0 435.55c90.14,21 128.09,100.5 128.09,192.16 44.63,21.41 250.95,113.01 288.24,121.69 4.69,-17.56 12.69,-27.24 24.09,-39.95 10.54,-11.76 17.29,-21.53 26.24,-31.41 100.22,-110.55 291.61,-137.6 425.97,-71.87 17.05,8.35 42.52,23.24 56.26,33.41 107.33,79.45 152.79,185.9 152.79,334 50.19,0 91.64,14.71 136.65,36.29 34.82,16.7 74.72,19.96 74.72,66.2 0,26.38 -24.86,51.24 -51.24,51.24 -35.77,0 -107.03,-57.65 -147.32,-57.65 -18.12,0 -44.83,20.33 -44.83,38.43 0,30.17 8.94,49.76 19.19,70.48 8.24,16.65 14.97,34.31 23.45,53.41l121.16 275.96c9.92,24.37 9.95,35.03 28.35,48.51 3.3,-39.65 11.86,-92.14 12.8,-134.52 1.1,-49.2 8.03,-80.68 33.27,-107.64 43.46,-46.41 175.05,-46.07 242.16,-46.07 -13.89,-52.01 -160.13,-38.47 -160.13,-115.29 0,-101.28 128.91,-18.72 177.63,1.71 116.1,48.68 118.62,189.08 -9.86,210.9 -53.09,9.01 -128.6,5.86 -180.58,17.98 0,36.96 -6.91,98.05 -11.02,129.89 -8.71,67.63 -4.38,115.13 -74.58,136.96 -56.05,17.43 -105.65,-7.91 -130.26,-57.4l-168.45 -388.8c-32.21,21.57 -61.66,50.25 -98.05,68.48 -44.66,22.38 -71.03,28.13 -129.66,36.97 -94.21,14.2 -59.36,-33.65 -84.9,68.72 -11.25,45.05 -26.86,83.72 -26.86,133.28 65.54,17.5 89.67,110.05 89.67,172.94 83.07,43.94 160.13,48.52 160.13,108.89 0,99.79 -165.03,1.91 -204.97,-19.22 -22.95,34.28 -70.21,64.05 -128.1,64.05 -219.06,0 -249.02,-291.49 -58.47,-346.7 35.71,-10.34 37.81,6.08 47.8,-29.07 11.36,-40.01 36.29,-141.49 36.29,-181.48 -31.24,-2.6 -75.83,-35.49 -96.23,-51.08 -29.16,-22.3 -48.95,-45.77 -71.33,-75.99 -38.62,-52.16 -69.43,-129.85 -69.43,-218.8 0,-39.74 10.01,-62.45 12.81,-96.09 -37.28,-8.68 -243.6,-100.28 -288.23,-121.69 -16.17,24.14 -30.64,35.67 -59.55,49.34 -35.78,16.91 -45.21,14.71 -94.18,14.71 -16.22,30.67 -28.23,63.27 -43.06,97.86l-84.13 197.68c-13.17,31.93 -31.28,60.6 -39.34,95.17 26.68,39.83 64.05,72.15 64.05,140.91 0,95.89 -82.18,179.35 -179.34,179.35 -106.07,0 -140.4,-60.02 -172.38,-135.06 -11.19,-26.27 2.81,-14.69 -30.15,-21.1l-214.16 -29.23c-30.73,-4.26 -155.89,-17.97 -172.59,-25.98 -14.2,26.85 -11.27,27.49 -33.45,49.81 -37.48,37.71 -105.83,81.12 -165.1,52.68 -3.47,14.89 -44.39,92.31 -53.97,100.06 -29.92,24.22 -80.54,9.98 -80.54,-36.02 0,-33.81 35.09,-67.07 44.83,-108.88 -20.8,-31.07 -51.24,-61.83 -51.24,-115.3 0,-56.2 20.29,-108.34 55.8,-142.75 97.12,-94.13 284.46,-40.23 296.48,104.33 29.65,0.65 75.64,9.35 107.79,13.91l207.96 29.04c38.13,5 68.04,7.11 100.59,14.69 18.82,-80.79 107.38,-108.89 185.75,-108.89 3.32,-39.93 60.47,-150.11 79.61,-195.81 27.23,-65.05 64.42,-125.8 80.52,-194.9 -10.02,-14.96 -16.4,-17.36 -26.71,-30.94 -70.86,-93.45 -30.66,-248.22 90.76,-276.51l0 -422.74c-60.69,5.05 -309.03,86 -385.06,108.13 -30.42,8.86 -97.17,32.11 -127.35,32.79 0,77.96 -53.95,137.9 -108.81,160.2 -67.74,27.54 -52.79,-14.63 -70.53,63.98 -14.73,65.26 -57.59,270.79 -78.84,318.29 -55.56,124.18 -228.61,136.29 -228.61,53.2 0,-71.06 72.02,-39.14 109.2,-57.34 34.87,-17.07 38.05,-72.58 48.38,-118.14 16.1,-71.07 60.19,-206.13 60.19,-272.88 -28.88,-19.34 -34.76,-23.47 -56.03,-52.86 -24.8,-34.29 -27.23,-75.63 -27.23,-120.08 0,-162.81 250.22,-214.9 326.66,-70.46 57.43,-4.77 213.72,-58.01 271.24,-74.62 57.9,-16.73 215.94,-71.56 266.79,-72.69 0,-58.27 -9.68,-42.68 -57.86,-76.65 -20.91,-14.73 -33.16,-31.33 -46.82,-55.67 -21.33,-38.02 -3.23,-52.54 -34.86,-67.62l-73.97 -28.51c-90.13,-48.62 -164.22,-106.73 -219.53,-190.4 -93.09,-140.86 -133.38,-310.96 -90.98,-483.08 47.4,-192.46 126.9,-112.1 126.9,-78.06 0,30.55 -23.52,73.93 -30.89,103.61 -37.26,149.92 10.24,310.89 87.53,416.21 53.03,72.26 139.57,144.09 231.59,165.53 70.46,-133.14 249.23,-134.24 320.26,0 85.43,-19.9 183.51,-99.18 229.74,-160.97 152.7,-204.08 134.22,-476.47 -45.57,-657.31 -64.21,-64.57 -146.51,-105.75 -236.53,-128.56 -23.36,-5.93 -81.72,-13.93 -107.77,-13.93 -264.88,0 -344.49,186.85 -405.71,169.18 -22.84,-6.58 -36.24,-20.56 -36.24,-47.48 0,-36.17 48.04,-71.55 71.32,-88.81 105.84,-78.47 221.38,-121.37 336.68,-128.97zm-260.69 2831.08c-117.57,0 -108.27,-153.73 0,-153.73 93.89,0 93.89,153.73 0,153.73zm-755.8 -256.21c94.95,0 114.16,153.73 -12.81,153.73 -81.87,0 -100.38,-153.73 12.81,-153.73zm1562.86 -172.94c0,-83.83 -5.44,-84.94 39.19,-65.57 19.83,8.61 30.53,16.09 50.48,20.74 0,74.68 32.47,157.66 89.67,172.94 0,21.7 -12.78,82.67 -19.22,96.08 -76.87,-17.92 -160.12,-132.04 -160.12,-224.19zm192.15 -12.81c0,-111.09 153.72,-115.57 153.72,0 0,93.6 -153.72,90.54 -153.72,0zm-64.05 -121.7c-27.01,-14.29 -56.26,-24.14 -83.27,-38.43 154.59,-230.86 493.2,-94.61 493.2,128.11 0,97.35 -9.24,149.83 -87.93,225.93 -44.68,43.21 -107.64,68.7 -193.9,68.7 7.93,-16.52 16.9,-79.26 22.4,-86.49 16.03,-21.07 81.1,3.22 141.49,-89.08 45.78,-69.95 33.56,-160.31 -21.14,-216.98 -57.4,-59.48 -146.76,-73.71 -217.15,-34.13 -23.05,12.97 -34.06,29.22 -53.7,42.37zm-717.38 -224.17c0,-92.38 153.72,-114.92 153.72,12.81 0,87.11 -153.72,98.52 -153.72,-12.81zm-743 -454.78c0.01,-79.59 120.56,-109.51 151.38,-29.36 44.6,116 -151.37,156.55 -151.38,29.36zm1357.9 -115.28c0,-117.61 153.72,-115.88 153.72,0 0,90.32 -153.72,92.67 -153.72,0zm-614.9 -333.07c0,-105.2 153.72,-121.45 153.72,6.4 0,84.3 -153.72,90.29 -153.72,-6.4z"/>
    <path class="fil0" d="M1384.97 745.37c0,36.8 1.65,37.61 26.2,57.06 183.01,144.91 367.36,9.47 369.19,-44.96 0.86,-25.55 -18.07,-50.54 -49.52,-50.54 -55.25,0 -30.5,57.65 -166.53,57.65 -78.91,0 -78.42,-57.65 -140.92,-57.65 -15.42,0 -38.42,23.01 -38.42,38.44z"/>
    <path class="fil0" d="M1634.76 476.35c0,37.11 -10.88,128.1 51.25,128.1 62.12,0 51.24,-90.99 51.24,-128.1 0,-68.75 -102.49,-68.75 -102.49,0z"/>
    <path class="fil0" d="M1429.81 469.95c0,50.04 -12.64,134.5 44.83,134.5 65.65,0 51.24,-72.42 51.24,-140.91 0,-44.33 -96.07,-61.91 -96.07,6.41z"/>
   </g>
  </g>
 </g>
</svg>
