<?xml version="1.0" encoding="UTF-8"?>
<!DOCTYPE svg PUBLIC "-//W3C//DTD SVG 1.1//EN" "http://www.w3.org/Graphics/SVG/1.1/DTD/svg11.dtd">
<!-- Creator: CorelDRAW 2018 (64 Bit Versão de avaliação) -->
<svg xmlns="http://www.w3.org/2000/svg" xml:space="preserve" width="33.8666mm" height="33.8666mm" version="1.1" style="shape-rendering:geometricPrecision; text-rendering:geometricPrecision; image-rendering:optimizeQuality; fill-rule:evenodd; clip-rule:evenodd"
viewBox="0 0 3386.66 3386.66"
 xmlns:xlink="http://www.w3.org/1999/xlink">
 <defs>
  <style type="text/css">
   <![CDATA[
    .fil0 {fill:black}
   ]]>
  </style>
 </defs>
 <g id="Camada_x0020_1">
  <metadata id="CorelCorpID_0Corel-Layer"/>
  <g id="_2249050556320">
   <g id="_1673518361872">
    <path class="fil0" d="M474.58 2062.7l0 -39.36c0,-129.63 126.27,-255.9 255.9,-255.9l39.37 0c129.63,0 255.9,126.27 255.9,255.9l0 39.36c0,129.75 -126.17,255.9 -255.9,255.9l-39.37 0c-129.31,0 -255.9,-126.18 -255.9,-255.9zm623.34 -544.58c-139.96,0 -275.59,-121.46 -275.59,-282.14 0,-304.95 413.82,-375.88 531.54,-111.61 86.24,193.63 -64.96,393.75 -255.95,393.75zm866.1 -249.34l-45.92 0c-132.54,0 -255.9,-122.25 -255.9,-288.7 0,-131.61 125.34,-262.47 255.9,-262.47 89.74,0 164.55,15.55 224.78,83.61 179.26,202.54 9.35,467.56 -178.86,467.56zm-1213.86 1784.7c161.83,0 255.5,-19.77 389.77,-108.89 110,-73.01 132.31,-123.1 205.42,-221.08 119.84,-160.56 293.84,-304.74 482.79,-376.75 98.59,-37.57 12.37,-54.28 170.73,-183.6 39.42,-32.2 92.19,-62.53 142.32,-74.21 0,-134.74 68.3,-228.62 122.77,-356.2 60.24,-141.15 177.9,-367.48 230.61,-497.7 35.07,-86.61 114.2,-239.19 153.74,-331.82l76.84 -165.93c-29.74,-19.9 -62.27,-46.22 -92.19,-65.28 -31.19,-19.86 -65.51,-42.64 -98.06,-59.42 -157.04,-80.96 -282.75,-138.8 -467.53,-175.49 -311.12,-61.77 -615.19,-44.51 -909.47,64.92 -153.52,57.08 -276.94,127.96 -401.17,215.61 -229.32,161.8 -431.79,423.14 -541.83,685.14 -155.99,371.31 -189.23,858.15 -7.11,1267.9 61.36,138.06 157.49,251.28 297.23,319.55 58.35,28.51 162.2,63.25 245.14,63.25z"/>
    <path class="fil0" d="M2278.97 2056.14c0,99.56 2.01,74.48 45.93,157.48 -213.89,-49.83 -374,144.27 -374,360.88 0,161.35 67.39,256.8 9.01,442.05 -6.91,21.93 -10.86,23.29 -15.58,43.49 184.98,-15.39 372.11,-124.83 490.21,-264.35 89.17,-105.38 170.29,-263.84 106.94,-404.97 -37.17,-82.78 -53.94,-74.38 -78.79,-111.49 94.05,0 172.59,-47.89 202.63,-125.45 15.57,-40.26 30.28,-78.17 44.28,-119.73l132.7 -359.41c31.17,-83.5 56.51,-161.38 89.01,-245.63l176.81 -479.33c15.23,-45.15 174.74,-458.2 174.74,-487.95 0,-45.56 -31.32,-95.44 -63.2,-113.95 -45.91,-26.65 -88.02,-28.06 -134.06,-4.6 -46.07,23.49 -52.77,54.11 -76.21,100.96l-199.04 430.86c-10.45,21.14 -16.7,40.59 -28.27,63.59l-58.84 124.89c-35.64,83.52 -72.8,161.02 -111.9,242.4 -10.68,22.17 -15.01,37.18 -26.1,59.2l-58.84 124.89c-11.16,26.15 -16.48,38.59 -28.79,63.07l-113.66 247.21c-25.56,50.14 -104.98,216.43 -104.98,255.89z"/>
    <path class="fil0" d="M2738.27 2292.35c141.65,0 250.38,-69.79 350.55,-148.11 117.78,-92.09 213.73,-286.82 213.73,-435.85 0,-179 -21.13,-239.09 -98.43,-393.69 -12.67,-25.32 -31.83,-76.72 -52.48,-91.85l-373.88 1010.58c-13.35,25.64 -25.04,37.33 -39.49,58.92z"/>
   </g>
  </g>
 </g>
</svg>
