<?xml version="1.0" encoding="UTF-8"?>
<!DOCTYPE svg PUBLIC "-//W3C//DTD SVG 1.1//EN" "http://www.w3.org/Graphics/SVG/1.1/DTD/svg11.dtd">
<!-- Creator: CorelDRAW 2018 (64 Bit Versão de avaliação) -->
<svg xmlns="http://www.w3.org/2000/svg" xml:space="preserve" width="33.8666mm" height="33.8666mm" version="1.1" style="shape-rendering:geometricPrecision; text-rendering:geometricPrecision; image-rendering:optimizeQuality; fill-rule:evenodd; clip-rule:evenodd"
viewBox="0 0 3386.66 3386.66"
 xmlns:xlink="http://www.w3.org/1999/xlink">
 <defs>
  <style type="text/css">
   <![CDATA[
    .fil0 {fill:black}
   ]]>
  </style>
 </defs>
 <g id="Camada_x0020_1">
  <metadata id="CorelCorpID_0Corel-Layer"/>
  <g id="_2249057271824">
   <g id="_1673513825904">
    <path class="fil0" d="M1234.8 2574.16c0,130.93 92.33,202 195.52,184.6 119,-20.05 141.66,-109.56 172.79,-208.31l277.09 -865.34c36.18,-108.47 273.04,-818.57 273.04,-869.42 0,-102.28 -42.93,-190.4 -168.02,-190.4 -110.47,0 -152.74,68.83 -180.73,155.26 -26.43,81.57 -58.31,164.4 -83.34,252.69 -81.41,287.01 -234.7,721.18 -328.23,1015.82 -25.75,81.18 -158.12,473.44 -158.12,525.1z"/>
    <path class="fil0" d="M2130.83 1274.91c0,154.18 93.94,164.92 190.58,212.65 80.23,39.62 390.37,188.38 447.86,201.77l-12.7 9.72c-17.65,11.61 -4.71,3.94 -20.7,12.88l-489.5 227.34c-200.62,99.24 -121,343.69 52.47,343.69 64.99,0 352.98,-142.49 425.58,-179.26 114.28,-57.87 489.16,-216.73 555.81,-261.83 81.74,-55.32 100.31,-202.58 10.76,-282.26 -39.41,-35.05 -83.64,-44.02 -133.59,-68 -95.14,-45.72 -184.35,-91.27 -282.61,-131.82 -64.34,-26.55 -518.29,-252.88 -564.75,-252.88 -95.17,0 -179.21,71.43 -179.21,168z"/>
    <path class="fil0" d="M36.35 1689.33c0,168.6 163.15,193.67 328.42,276.42l429.62 197.61c151.57,75.88 301.53,173.51 408.92,76.91 73.29,-65.92 93.42,-223.71 -54.1,-297.34 -61.9,-30.91 -114.29,-50.73 -175.74,-81.88 -60.37,-30.58 -117.49,-53.7 -175.32,-82.28 -29.23,-14.44 -53.35,-21.83 -86.09,-37.13 -36.14,-16.9 -54.13,-31.98 -93.29,-41.12 2.25,-1.55 6.04,-6.2 7.15,-4.04 1.1,2.15 5.62,-3.23 7.17,-4.04l334.47 -158.35c168.03,-68.03 289.63,-110.19 289.63,-259.18 0,-103.34 -99.37,-168 -168,-168 -53.66,0 -226.51,91.98 -286.49,116.73l-693.2 326.05c-35.16,25.52 -73.15,85.17 -73.15,139.64z"/>
   </g>
  </g>
 </g>
</svg>
