<?xml version="1.0" encoding="UTF-8"?>
<!DOCTYPE svg PUBLIC "-//W3C//DTD SVG 1.1//EN" "http://www.w3.org/Graphics/SVG/1.1/DTD/svg11.dtd">
<!-- Creator: CorelDRAW 2018 (64 Bit Versão de avaliação) -->
<svg xmlns="http://www.w3.org/2000/svg" xml:space="preserve" width="33.8666mm" height="33.8666mm" version="1.1" style="shape-rendering:geometricPrecision; text-rendering:geometricPrecision; image-rendering:optimizeQuality; fill-rule:evenodd; clip-rule:evenodd"
viewBox="0 0 3386.66 3386.66"
 xmlns:xlink="http://www.w3.org/1999/xlink">
 <defs>
  <style type="text/css">
   <![CDATA[
    .fil0 {fill:black}
   ]]>
  </style>
 </defs>
 <g id="Camada_x0020_1">
  <metadata id="CorelCorpID_0Corel-Layer"/>
  <g id="_2249050554752">
   <g id="_1673366758576">
    <path class="fil0" d="M681.26 1412.83c26.24,39.18 48.61,81.37 73.07,125.14 25.85,46.23 49.22,83.39 75.2,129.87l368.3 636.43c13.98,23.77 25.16,43.52 37.06,65.46 13,23.96 27.44,39.41 34.19,68.35l426.32 -168.32c32.88,-10.96 64.26,-19.53 93.99,-29.04 62.95,-20.14 122.06,-33.25 189.2,-50.02 62.23,-15.54 128.56,-29.01 198.58,-40.65 68.74,-11.44 133.89,-18.38 210.81,-28.4l335.56 -19.87c53.66,-10.21 73.29,-58.81 32.7,-125.61 -12.62,-20.79 -20.57,-36.18 -32.63,-56.23 -22.16,-36.88 -41.63,-70.03 -62.55,-108.34l-756 -1308.16c-40.99,-71.65 -92.67,-197.88 -150.7,-197.88 -55.03,0 -56.25,16.86 -82.43,61.12 -127.82,216.15 -190.34,285.66 -340.33,473.03l-303.77 304.54c-107.48,89.9 -230.03,190.54 -346.57,268.58z"/>
    <path class="fil0" d="M11.43 2034.82c0,196.53 53.05,242.01 150.01,410.45 26.03,45.2 64.08,119.42 97.65,155.26 147.85,157.88 348.28,203.02 545.28,104.19 55.37,-27.77 299.55,-177.99 328,-184.62 -6.15,-26.39 -53.28,-101.3 -69.66,-128.55 -25.86,-43.01 -46.72,-82.78 -72.63,-125.58l-292.81 -506.9c-48.76,-89.52 -98.77,-168.36 -145.87,-257.39 -24.86,2.07 -306.54,165.23 -342.8,190.34 -104.12,72.04 -197.17,203.31 -197.17,342.8z"/>
    <path class="fil0" d="M968.33 2793.5c9.08,34.01 315.72,325.97 346.87,357.13 50.89,50.89 113.29,146.58 215.33,54.7l131.35 -135.22c79.47,-104.64 -43.48,-183.6 -148.46,-288.58l-189.67 -186.25 -355.42 198.22z"/>
    <path class="fil0" d="M2287.48 838.69c7.68,28.72 52.35,93.43 68.36,123.03 25.98,48.05 204.09,342.48 211.88,375.93 59.23,-15.82 194.04,-255 29.15,-418.75 -30.31,-30.11 -39.76,-41.58 -79.76,-63.77 -52.37,-29.07 -170.88,-44.62 -229.63,-16.44z"/>
    <path class="fil0" d="M2458.36 537.95c0,88.46 131.87,116.23 162.89,19.36 11.53,-35.98 15.62,-72.08 24.53,-112.17 10.27,-46.09 44.97,-192.22 44.97,-228.43 0,-62.52 -138.28,-139.68 -172.68,25.53 -8.18,39.32 -59.71,260.21 -59.71,295.71z"/>
    <path class="fil0" d="M2854.79 825.03c0,54.81 46.28,88.85 82.02,88.85 31.02,0 239.31,-125.57 289.29,-154.98 133.21,-78.44 38.2,-185.27 -32.32,-169.3 -29.34,6.64 -207.39,113.87 -246.21,136.82 -37.79,22.34 -92.78,42.52 -92.78,98.61z"/>
    <path class="fil0" d="M2909.47 1310.31c0,91.09 95.81,99.1 221.3,140.95 46.1,15.37 93.15,34.73 139.51,45.67 103.82,24.51 153.62,-124.77 40.2,-163.85l-312.16 -97.96c-60.27,0 -88.85,51.06 -88.85,75.19z"/>
   </g>
  </g>
 </g>
</svg>
