<?xml version="1.0" encoding="UTF-8"?>
<!DOCTYPE svg PUBLIC "-//W3C//DTD SVG 1.1//EN" "http://www.w3.org/Graphics/SVG/1.1/DTD/svg11.dtd">
<!-- Creator: CorelDRAW 2018 (64 Bit Versão de avaliação) -->
<svg xmlns="http://www.w3.org/2000/svg" xml:space="preserve" width="33.8666mm" height="33.8666mm" version="1.1" style="shape-rendering:geometricPrecision; text-rendering:geometricPrecision; image-rendering:optimizeQuality; fill-rule:evenodd; clip-rule:evenodd"
viewBox="0 0 3386.66 3386.66"
 xmlns:xlink="http://www.w3.org/1999/xlink">
 <defs>
  <style type="text/css">
   <![CDATA[
    .fil0 {fill:black}
   ]]>
  </style>
 </defs>
 <g id="Camada_x0020_1">
  <metadata id="CorelCorpID_0Corel-Layer"/>
  <path class="fil0" d="M1794.12 2783.33l0 -818.9 577.14 -191.34c27.68,-9.24 61.64,-18.27 84.27,-29.13l0 825.2c-33.86,0.75 -131.56,38.59 -164.58,49.59l-412.57 135.46c-27.68,9.24 -61.63,18.26 -84.26,29.12zm1511.8 121.18l0 25.49c-5.34,42.05 -37.55,80.1 -100.79,80.1 -39.75,0 -426.32,-173.33 -495.86,-203.34 -210.45,-90.82 -125.77,-81.79 -378.92,2.57l-417.35 136.98c-36.33,12.11 -68.1,21.15 -105.54,33.04 -25.67,8.14 -78.12,30.75 -107.83,30.75 -68.75,0 -812.56,-270.86 -856.68,-270.86l-492.24 206.97c-34.92,14.41 -134.12,63.89 -169.19,63.89 -62.65,0 -95.24,-37.79 -100.78,-79.78l0 -26.26c3.99,-30.55 21.78,-59.69 52.28,-74.76l615.43 -260.14 0 -812.59c0,-108.76 -18.84,-190.65 45.9,-224.98 66.09,-35.03 729.41,-236.63 804.49,-272.66 0,-163.77 0,-327.56 0,-491.33 0,-63.96 -13.3,-301.84 17.28,-348.08 40.52,-61.26 129.02,-55.54 165.39,7.93 16.39,28.57 12.67,63.02 12.61,107.08l0 724.4 608.64 203.96c173.04,57.69 242.89,51.45 241.91,167.53l-0.16 938.74c26.72,14.14 57.4,26.35 87.29,38.69l481.78 204.82c16.9,7.5 28.64,10.26 44.25,18.76 27.9,15.16 44.39,43.44 48.09,73.08zm-2368.49 -1160.55c21.61,10.38 52.95,18.72 79.52,27.58l250.69 83.15c60.69,17.22 109.44,34.8 166.62,53.86l164.58 55.88 0 818.9c-40.32,-19.35 -265.19,-87.37 -326.75,-107.89 -53.64,-17.88 -111.74,-37.21 -165.39,-55.08 -42.45,-14.15 -125.98,-47.6 -169.27,-51.2l0 -825.2zm220.47 -138.57c45.36,-3.78 511.17,-175.72 540.93,-174.33 14.74,0.7 108.25,34.84 132.28,42.84l371.97 125.67c23.2,7.66 19.25,1.04 31.98,18.42 -30.72,2.55 -101.22,30.56 -134.66,41.71 -46.27,15.43 -85.6,30.49 -132.56,43.81 -50.02,14.19 -85.68,26.87 -133.55,42.83 -169.24,56.44 -103.2,57.42 -266.14,3.12l-270.86 -88.18c-30.51,-10.17 -108.44,-40.73 -139.39,-43.29l0 -12.6z"/>
 </g>
</svg>
